<svg xmlns="http://www.w3.org/2000/svg" width="1280" height="640" viewBox="0 0 1280 640" role="img" aria-label="Concord — peer-to-peer, end-to-end encrypted chat">
  <defs>
    <linearGradient id="bg" x1="0" y1="0" x2="1" y2="1">
      <stop offset="0" stop-color="#16181c"/><stop offset="1" stop-color="#0d0f12"/>
    </linearGradient>
    <radialGradient id="glow" cx="0.5" cy="0.5" r="0.5">
      <stop offset="0" stop-color="#14a394" stop-opacity="0.26"/>
      <stop offset="1" stop-color="#14a394" stop-opacity="0"/>
    </radialGradient>
    <linearGradient id="tile" x1="0" y1="0" x2="1" y2="1">
      <stop offset="0" stop-color="#1d2025"/><stop offset="1" stop-color="#16181c"/>
    </linearGradient>
    <linearGradient id="rule" x1="0" y1="0" x2="1" y2="0">
      <stop offset="0" stop-color="#14a394" stop-opacity="0"/>
      <stop offset="0.5" stop-color="#14a394"/>
      <stop offset="1" stop-color="#14a394" stop-opacity="0"/>
    </linearGradient>
  </defs>
  <rect width="1280" height="640" fill="url(#bg)"/>
  <circle cx="640" cy="250" r="330" fill="url(#glow)"/>

  <rect x="562" y="112" width="156" height="156" rx="37" fill="url(#tile)" stroke="#14a394" stroke-opacity="0.28"/>
  <g transform="translate(578 124) scale(1.94)" fill="#ffffff"><path fill-rule="evenodd" d="M32 6C31.1 6 30.6 6.7 30.6 8.2L30.2 17C27.3 17.8 25.2 20.5 25.2 23.8L25.2 27.6L4.6 41.6C3.4 42.4 4.1 44.3 5.5 44L24 40.7C24.7 41.9 25.8 42.8 27.1 43.3L26.2 50.6C26.1 51.6 26.9 52.2 27.7 51.7L30.3 45.9L31 55.2C31 56 31.4 56.4 32 56.4C32.6 56.4 33 56 33 55.2L33.7 45.9L36.3 51.7C37.1 52.2 37.9 51.6 37.8 50.6L36.9 43.3C38.2 42.8 39.3 41.9 40 40.7L58.5 44C59.9 44.3 60.6 42.4 59.4 41.6L38.8 27.6L38.8 23.8C38.8 20.5 36.7 17.8 33.8 17L33.4 8.2C33.4 6.7 32.9 6 32 6ZM28.4 22.3L31 22.3L31 27.2L27.4 27.2L27.4 24.3C27.4 23.3 27.7 22.3 28.4 22.3ZM33 22.3L35.6 22.3C36.3 22.3 36.6 23.3 36.6 24.3L36.6 27.2L33 27.2Z"/></g>

  <text x="640" y="382" text-anchor="middle" font-family="Inter" font-weight="700" font-size="96" letter-spacing="-2.5" fill="#ffffff">Concord</text>
  <rect x="500" y="410" width="280" height="3" rx="1.5" fill="url(#rule)"/>
  <text x="640" y="464" text-anchor="middle" font-family="Inter" font-weight="400" font-size="28" fill="#98a1ab">Peer-to-peer, end-to-end encrypted chat.</text>
  <text x="640" y="504" text-anchor="middle" font-family="Inter" font-weight="400" font-size="28" fill="#98a1ab">No company, no account database, no server in the middle.</text>
  <text x="640" y="562" text-anchor="middle" font-family="Inter" font-weight="500" font-size="17" fill="#14a394" opacity="0.9">MLS (RFC 9420)&#8195;•&#8195;libp2p&#8195;•&#8195;AGPL-3.0&#8195;•&#8195;Linux · macOS · Windows · Android</text>
</svg>
